<?xml version="1.0" encoding="UTF-8" standalone="no"?>
<svg width="24px" height="24px" viewBox="0 0 24 24" version="1.1" xmlns="http://www.w3.org/2000/svg" xmlns:xlink="http://www.w3.org/1999/xlink" xmlns:sketch="http://www.bohemiancoding.com/sketch/ns">
    <!-- Generator: Sketch 3.0.4 (8053) - http://www.bohemiancoding.com/sketch -->
    <title>twitter-4-icon</title>
    <desc>Created with Sketch.</desc>
    <defs></defs>
    <g id="Page-1" stroke="none" stroke-width="1" fill="none" fill-rule="evenodd" sketch:type="MSPage">
        <g id="Desktop-HD" sketch:type="MSArtboardGroup" transform="translate(-953.000000, -1742.000000)" fill="#FFFFFF">
            <g id="Footer" sketch:type="MSLayerGroup" transform="translate(1.000000, 1485.000000)">
                <path d="M964,257 C957.372563,257 952,262.372563 952,269 C952,275.627437 957.372563,281 964,281 C970.627437,281 976,275.627437 976,269 C976,262.372563 970.627437,257 964,257 L964,257 Z M970.034893,266.932388 C970.210874,270.846893 967.291437,275.211456 962.124097,275.211456 C960.552388,275.211456 959.089379,274.750621 957.857806,273.96101 C959.33433,274.13501 960.808058,273.725437 961.978233,272.808427 C960.76035,272.785942 959.732369,271.981359 959.378311,270.875553 C959.814388,270.958971 960.243417,270.934563 960.635107,270.828019 C959.296699,270.559068 958.372641,269.353243 958.402816,268.063767 C958.777961,268.272311 959.207282,268.397495 959.663515,268.411942 C958.424019,267.583534 958.073049,265.946816 958.802252,264.696078 C960.174854,266.379922 962.225748,267.488 964.538835,267.604039 C964.132874,265.863107 965.453515,264.186544 967.250019,264.186544 C968.050524,264.186544 968.773903,264.524524 969.281515,265.065456 C969.915534,264.940621 970.511107,264.70901 971.048951,264.390078 C970.841165,265.04 970.399786,265.585476 969.825184,265.929864 C970.388194,265.862699 970.924641,265.713049 971.423689,265.491631 C971.050583,266.049806 970.578738,266.540058 970.034893,266.932388 L970.034893,266.932388 Z" id="twitter-4-icon" sketch:type="MSShapeGroup"></path>
            </g>
        </g>
    </g>
</svg>