<svg width="17" height="17" viewBox="0 0 17 17" xmlns="http://www.w3.org/2000/svg"><title>key-3-icon</title><desc>Created with Sketch.</desc><path d="M7.89 13.38H6.08v1.864H4.192V17H0v-2.993l6.013-6.194c.165.405.37.792.61 1.153l-5.385 5.57v1.19h1.716V13.97h1.888v-1.865h2.535l1.183-1.24c.374.236.775.434 1.2.59L7.89 13.38zm5.97-8.36c-.48.492-1.255.493-1.733 0-.48-.493-.48-1.292 0-1.785.478-.493 1.254-.493 1.733 0 .478.492.478 1.292 0 1.785zM11.88 0C9.05 0 6.756 2.362 6.756 5.275c0 2.914 2.293 5.275 5.122 5.275 2.827 0 5.12-2.36 5.12-5.275C17 2.362 14.707 0 11.88 0zm0 9.275c-2.143 0-3.885-1.794-3.885-4s1.742-4 3.884-4c2.14 0 3.883 1.794 3.883 4s-1.743 4-3.884 4z" fill="#fff"/></svg>