<svg width="36" height="66" viewBox="0 0 36 66" xmlns="http://www.w3.org/2000/svg"><title>smartphone-4-icon</title><desc>Created with Sketch.</desc><path d="M30.642 0H5.304C2.374 0 0 2.367 0 5.286v55.428C0 63.634 2.374 66 5.304 66h25.338c2.93 0 5.304-2.367 5.304-5.286V5.286c0-2.92-2.374-5.286-5.304-5.286zm65.52 132.84h5.945c.355 0 .643.288.643.642 0 .354-.288.64-.643.64H96.16c-.355 0-.642-.286-.642-.64 0-.354.287-.64.642-.64zm2.972 58.125c-1.42 0-2.57-1.147-2.57-2.563 0-1.415 1.15-2.563 2.57-2.563s2.57 1.147 2.57 2.562c0 1.416-1.15 2.563-2.57 2.563zm13.78-7.898H85.032v-44.134h27.885v44.134z" fill="#564F6B" opacity=".901"/></svg>