<?xml version="1.0" encoding="UTF-8" standalone="no"?>
<svg width="60px" height="66px" viewBox="0 0 60 66" version="1.1" xmlns="http://www.w3.org/2000/svg" xmlns:xlink="http://www.w3.org/1999/xlink" xmlns:sketch="http://www.bohemiancoding.com/sketch/ns">
    <!-- Generator: Sketch 3.0.4 (8053) - http://www.bohemiancoding.com/sketch -->
    <title>multi-files-4-icon</title>
    <desc>Created with Sketch.</desc>
    <defs></defs>
    <g id="Page-1" stroke="none" stroke-width="1" fill="none" fill-rule="evenodd" sketch:type="MSPage">
        <g id="Desktop-HD" sketch:type="MSArtboardGroup" transform="translate(-578.000000, -1165.000000)" fill="#594B6C" opacity="0.900711287">
            <g id="Features" sketch:type="MSLayerGroup" transform="translate(282.000000, 1037.000000)">
                <path d="M332.810811,139.618563 L307.680216,139.618563 L307.680216,185.58516 L314.166703,185.58516 L314.166703,146.02633 L339.297459,146.02633 L332.810811,139.618563 L332.810811,139.618563 Z M321.130757,128 L296,128 L296,176.850092 L302.486486,176.850092 L302.486486,134.407767 L327.617243,134.407767 L321.130757,128 L321.130757,128 Z M340.445568,157.819024 L340.445568,166.74985 L349.504595,166.74985 L349.504595,187.592233 L326.171081,187.592233 L326.171081,157.819024 L340.445568,157.819024 L340.445568,157.819024 Z M344.499622,151.411257 L319.684757,151.411257 L319.684757,194 L355.991243,194 L355.991243,162.744995 L344.499622,151.411257 L344.499622,151.411257 Z" id="multi-files-4-icon" sketch:type="MSShapeGroup"></path>
            </g>
        </g>
    </g>
</svg>