<svg width="24" height="24" viewBox="0 0 24 24" xmlns="http://www.w3.org/2000/svg"><title>twitter-4-icon</title><desc>Created with Sketch.</desc><path d="M12 0C5.373 0 0 5.373 0 12s5.373 12 12 12 12-5.373 12-12S18.627 0 12 0zm958.035 266.932c.176 3.915-2.744 8.28-7.91 8.28-1.573 0-3.036-.46-4.267-1.25 1.476.173 2.95-.237 4.12-1.154-1.218-.022-2.246-.827-2.6-1.932.436.083.865.06 1.257-.048-1.338-.27-2.262-1.475-2.232-2.764.375.208.804.333 1.26.348-1.24-.828-1.59-2.465-.86-3.716 1.372 1.684 3.423 2.792 5.736 2.908-.407-1.74.914-3.417 2.71-3.417.8 0 1.524.338 2.032.878.634-.124 1.23-.356 1.767-.675-.21.65-.65 1.195-1.225 1.54.563-.067 1.1-.217 1.6-.438-.374.558-.846 1.048-1.39 1.44z" fill="#fff"/></svg>