<svg width="97" height="49" viewBox="0 0 97 49" xmlns="http://www.w3.org/2000/svg"><title>sound-wave-4-icon</title><desc>Created with Sketch.</desc><path d="M44.04 48.922c-8.03 0-7.77-19.85-11.1-28.218-.185-.463-.846-.473-1.044-.014-2.925 6.768-2.098 22.166-9.4 22.166-7.732 0-6.03-14.66-11.535-14.66H0v-4.9h10.96c7.852 0 8.724 9.414 10.774 13.637.238.493.953.478 1.172-.023 2.82-6.47 2.073-22.443 9.715-22.443 7.426 0 6.833 18.993 10.53 27.795.206.487.92.447 1.066-.064C47.746 29.735 45.256 0 54.752 0c9.03 0 7.403 23.123 10.574 32.758.177.538.92.603 1.19.105 2.748-5.075 2.312-16.53 8.602-16.53 6.663 0 5.836 11.51 10.83 11.51H97v4.9H85.947c-6.733 0-8.37-7.03-10.093-10.367-.234-.455-.907-.417-1.087.063-1.996 5.328-2.404 16.45-9.44 16.45-8.11 0-5.677-23.668-9.884-32.782-.22-.476-.912-.46-1.108.027-4.527 11.224-1.27 42.787-10.295 42.787z" fill="#594B6C" opacity=".901"/></svg>