<?xml version="1.0" encoding="UTF-8" standalone="no"?>
<svg width="17px" height="17px" viewBox="0 0 17 17" version="1.1" xmlns="http://www.w3.org/2000/svg" xmlns:xlink="http://www.w3.org/1999/xlink" xmlns:sketch="http://www.bohemiancoding.com/sketch/ns">
    <!-- Generator: Sketch 3.0.4 (8053) - http://www.bohemiancoding.com/sketch -->
    <title>key-3-icon</title>
    <desc>Created with Sketch.</desc>
    <defs></defs>
    <g id="Page-1" stroke="none" stroke-width="1" fill="none" fill-rule="evenodd" sketch:type="MSPage">
        <g id="Desktop-HD" sketch:type="MSArtboardGroup" transform="translate(-1307.000000, -35.000000)" fill="#FFFFFF">
            <g id="Header" sketch:type="MSLayerGroup" transform="translate(-21.000000, -180.000000)">
                <g id="Login" transform="translate(1328.000000, 215.000000)" sketch:type="MSShapeGroup">
                    <path d="M7.88998058,13.379765 L6.07964563,13.379765 L6.07972816,15.2443675 L4.19219175,15.2442825 L4.19219175,17.001445 L0,17.001445 L0,14.00698 L6.0134199,7.8131575 C6.17846845,8.2183525 6.38321117,8.6045925 6.62290291,8.966395 L1.23786408,14.535085 L1.23786408,15.7264025 L2.95432767,15.7264025 L2.95432767,13.9691975 L4.84182282,13.9692825 L4.84174029,12.1047225 L7.37721602,12.1047225 L8.55958252,10.8650825 C8.93366505,11.1008725 9.33506311,11.299305 9.75973301,11.4538775 L7.88998058,13.379765 L7.88998058,13.379765 Z M13.8596626,5.0195475 C13.3810631,5.51242 12.6052112,5.512505 12.1266942,5.01959 C11.6481359,4.526675 11.6481359,3.727505 12.1266942,3.2345475 C12.6052112,2.7416325 13.3811044,2.741675 13.8597451,3.2345475 C14.3381796,3.7274625 14.3382209,4.5266325 13.8596626,5.0195475 L13.8596626,5.0195475 Z M11.8788738,0 C9.05027184,0 6.75725243,2.36181 6.75725243,5.27527 C6.75725243,8.18873 9.05027184,10.5504975 11.8788738,10.5504975 C14.7074757,10.5504975 17.0004951,8.1886875 17.0004951,5.2752275 C17.0004951,2.3617675 14.7074757,0 11.8788738,0 L11.8788738,0 Z M11.8788738,9.2754975 C9.73736893,9.2754975 7.9951165,7.4809775 7.9951165,5.2752275 C7.9951165,3.0694775 9.73736893,1.2749575 11.8788738,1.2749575 C14.0203786,1.2749575 15.7626311,3.0694775 15.7626311,5.2752275 C15.7626311,7.4809775 14.0203786,9.2754975 11.8788738,9.2754975 L11.8788738,9.2754975 Z" id="key-3-icon"></path>
                </g>
            </g>
        </g>
    </g>
</svg>