<?xml version="1.0" encoding="UTF-8" standalone="no"?>
<svg width="97px" height="49px" viewBox="0 0 97 49" version="1.1" xmlns="http://www.w3.org/2000/svg" xmlns:xlink="http://www.w3.org/1999/xlink" xmlns:sketch="http://www.bohemiancoding.com/sketch/ns">
    <!-- Generator: Sketch 3.0.4 (8053) - http://www.bohemiancoding.com/sketch -->
    <title>sound-wave-4-icon</title>
    <desc>Created with Sketch.</desc>
    <defs></defs>
    <g id="Page-1" stroke="none" stroke-width="1" fill="none" fill-rule="evenodd" sketch:type="MSPage">
        <g id="Desktop-HD" sketch:type="MSArtboardGroup" transform="translate(-785.000000, -1173.000000)" fill="#594B6C" opacity="0.900711287">
            <g id="Features" sketch:type="MSLayerGroup" transform="translate(282.000000, 1037.000000)">
                <path d="M547.039648,184.9223 C539.010779,184.9223 539.26976,165.072167 535.93974,156.704367 C535.754922,156.2412 535.094051,156.2307 534.895578,156.689667 C531.971451,163.458433 532.797835,178.855633 525.497172,178.855633 C517.763541,178.855633 519.465279,164.1946 513.960765,164.1946 L503,164.1946 L503,159.2946 L513.960765,159.2946 C521.812114,159.2946 522.684172,168.709833 524.73365,172.933167 C524.972148,173.425733 525.687405,173.4115 525.905891,172.909833 C528.726189,166.4388 527.978913,150.466667 535.621194,150.466667 C543.045697,150.466667 542.453337,169.459533 546.151109,178.262033 C546.355704,178.749467 547.070726,178.709333 547.215755,178.197867 C550.746131,165.7346 548.257328,136 557.752262,136 C566.78268,136 565.15534,159.1231 568.326439,168.7579 C568.503017,169.295733 569.246527,169.360833 569.516337,168.862667 C572.263886,163.787667 571.827621,152.333333 578.117553,152.333333 C584.780653,152.333333 583.953799,163.844367 588.94765,163.844367 L600,163.844367 L600,168.744367 L588.947415,168.744367 C582.214391,168.744367 580.57575,161.714267 578.854,158.3762 C578.619505,157.9205 577.947097,157.958767 577.767459,158.439433 C575.770718,163.7676 575.362942,174.888733 568.32691,174.888733 C560.216345,174.888733 562.649585,151.2222 558.442799,142.107967 C558.223136,141.631733 557.531422,141.647133 557.334833,142.1348 C552.808323,153.359067 556.066063,184.9223 547.039648,184.9223 L547.039648,184.9223 Z" id="sound-wave-4-icon" sketch:type="MSShapeGroup"></path>
            </g>
        </g>
    </g>
</svg>