<?xml version="1.0" encoding="UTF-8" standalone="no"?>
<svg width="36px" height="66px" viewBox="0 0 36 66" version="1.1" xmlns="http://www.w3.org/2000/svg" xmlns:xlink="http://www.w3.org/1999/xlink" xmlns:sketch="http://www.bohemiancoding.com/sketch/ns">
    <!-- Generator: Sketch 3.0.4 (8053) - http://www.bohemiancoding.com/sketch -->
    <title>smartphone-4-icon</title>
    <desc>Created with Sketch.</desc>
    <defs></defs>
    <g id="Page-1" stroke="none" stroke-width="1" fill="none" fill-rule="evenodd" sketch:type="MSPage">
        <g id="Desktop-HD" sketch:type="MSArtboardGroup" transform="translate(-363.000000, -1165.000000)" fill="#564F6B" opacity="0.900711287">
            <g id="Features" sketch:type="MSLayerGroup" transform="translate(282.000000, 1037.000000)">
                <path d="M111.642429,128 L86.3035714,128 C83.3742321,128 81,130.366709 81,133.286408 L81,188.713592 C81,191.633291 83.3742321,194 86.3035714,194 L111.642429,194 C114.571768,194 116.946,191.633291 116.946,188.713592 L116.946,133.286408 C116.946,130.366709 114.571768,128 111.642429,128 L111.642429,128 Z M96.1605,132.841388 L102.106929,132.841388 C102.461946,132.841388 102.749786,133.128296 102.749786,133.482165 C102.749786,133.836034 102.461946,134.122942 102.106929,134.122942 L96.1605,134.122942 C95.8054821,134.122942 95.5176429,133.836034 95.5176429,133.482165 C95.5176429,133.128296 95.8054821,132.841388 96.1605,132.841388 L96.1605,132.841388 Z M99.1340357,190.965282 C97.7136429,190.965282 96.5626071,189.817811 96.5626071,188.402175 C96.5626071,186.986539 97.7136429,185.839068 99.1340357,185.839068 C100.553786,185.839068 101.705464,186.986539 101.705464,188.402175 C101.705464,189.817811 100.553786,190.965282 99.1340357,190.965282 L99.1340357,190.965282 Z M112.914964,183.066748 L85.0313571,183.066748 L85.0313571,138.933252 L112.914964,138.933252 L112.914964,183.066748 L112.914964,183.066748 Z" id="smartphone-4-icon" sketch:type="MSShapeGroup"></path>
            </g>
        </g>
    </g>
</svg>